<svg id="visual" viewBox="0 0 960 540" width="960" height="540" xmlns="http://www.w3.org/2000/svg" xmlns:xlink="http://www.w3.org/1999/xlink" version="1.1"><rect x="0" y="0" width="960" height="540" fill="#222933"></rect><path d="M0 424L22.8 411.8C45.7 399.7 91.3 375.3 137 374.5C182.7 373.7 228.3 396.3 274 395.3C319.7 394.3 365.3 369.7 411.2 360.5C457 351.3 503 357.7 548.8 376.7C594.7 395.7 640.3 427.3 686 437.8C731.7 448.3 777.3 437.7 823 427.8C868.7 418 914.3 409 937.2 404.5L960 400L960 541L937.2 541C914.3 541 868.7 541 823 541C777.3 541 731.7 541 686 541C640.3 541 594.7 541 548.8 541C503 541 457 541 411.2 541C365.3 541 319.7 541 274 541C228.3 541 182.7 541 137 541C91.3 541 45.7 541 22.8 541L0 541Z" fill="#007575" stroke-linecap="round" stroke-linejoin="miter"></path></svg>